/* XPM */
static char *result[] = {
/* columns rows colors chars-per-pixel */
"32 32 163 2 ",
"   c #D8C880",
".  c #D3C37D",
"X  c #D0C07B",
"o  c #B9AC6F",
"O  c #867E59",
"+  c #9C9160",
"@  c #D1C27C",
"#  c #B8AA6D",
"$  c #716F62",
"%  c #7A7872",
"&  c #978D5E",
"*  c #D5C57E",
"=  c #716D5F",
"-  c gray84",
";  c #A9A9A7",
":  c #766F52",
">  c #D6C67F",
",  c #8E845A",
"<  c gray81",
"1  c #F1F1F1",
"2  c #868581",
"3  c #BBAD6F",
"4  c #7D7B74",
"5  c #9D8989",
"6  c #9E5555",
"7  c #8E8686",
"8  c #867D54",
"9  c #A39762",
"0  c #AFAFAD",
"q  c #F3F3F3",
"w  c #E7E7E7",
"e  c #746D4E",
"r  c #7F7855",
"t  c #807473",
"y  c #D76C6B",
"u  c #A25C5C",
"i  c #73736B",
"p  c #BDAF70",
"a  c #706B57",
"s  c gray91",
"d  c #7E7B6D",
"f  c #CEBF7A",
"g  c #C4A078",
"h  c #BE9B74",
"j  c #746D4F",
"k  c #766A68",
"l  c #BC6464",
"z  c #7D6262",
"x  c #514E40",
"c  c #797667",
"v  c #6B6A61",
"b  c gray42",
"n  c #868686",
"m  c #868580",
"M  c #7E7652",
"N  c #6B6362",
"B  c #774949",
"V  c #595757",
"C  c #EFEFEF",
"Z  c gray83",
"A  c #585857",
"S  c #9F935E",
"D  c #946F51",
"F  c #4F4E4A",
"G  c #585757",
"H  c #595858",
"J  c #C5C5C5",
"K  c #DADADA",
"L  c #817957",
"P  c #B08460",
"I  c #93895B",
"U  c #A9A9A9",
"Y  c #939393",
"T  c #B1B1B1",
"R  c gray95",
"E  c #8C8359",
"W  c #B4B4B4",
"Q  c #CECECE",
"!  c #ECECEC",
"~  c #EAEAEA",
"^  c #7E7C72",
"/  c #8E8459",
"(  c gray69",
")  c #989898",
"_  c #7B7B7B",
"`  c gray93",
"'  c gray72",
"]  c gray47",
"[  c #6D6B5E",
"{  c #9D915F",
"}  c #9D9D9D",
"|  c gray58",
" . c gray21",
".. c #B8B4B4",
"X. c #8F8D8D",
"o. c #3A3A3A",
"O. c #676250",
"+. c #C7B876",
"@. c #69665A",
"#. c #CBCBCB",
"$. c gray92",
"%. c gainsboro",
"&. c #695E5E",
"*. c #7F7979",
"=. c gray89",
"-. c #76725F",
";. c #B3A56A",
":. c #3A4044",
">. c #7689A0",
",. c #A5A6A7",
"<. c #ACACAC",
"1. c #585859",
"2. c #4F4F4E",
"3. c #797668",
"4. c #A99C65",
"5. c #6B6340",
"6. c #0B233F",
"7. c #03336E",
"8. c #06428C",
"9. c #253241",
"0. c #0E407D",
"q. c #090E17",
"w. c #968B59",
"e. c #504B33",
"r. c #5F5F5F",
"t. c #A4A5A5",
"y. c #063269",
"u. c #0771F1",
"i. c #0975F9",
"p. c #0C58B4",
"a. c #161B22",
"s. c #353533",
"d. c #887F56",
"f. c #736B49",
"g. c #9F9F9F",
"h. c #838484",
"j. c #33455C",
"k. c #294A75",
"l. c #2D527F",
"z. c #35485E",
"x. c #131314",
"c. c #756F53",
"v. c #C9BA77",
"b. c #6F6743",
"n. c #414141",
"m. c #606060",
"M. c #807F78",
"N. c #7B7B79",
"B. c #666665",
"V. c #585238",
"C. c #766E4C",
"Z. c #AC9F66",
"A. c gray54",
"S. c gray57",
"D. c #857B4F",
"F. c #626056",
"G. c #716A4C",
"H. c #847A4F",
"J. c #81784E",
"K. c #9B905C",
"L. c #887E51",
"P. c #ACA066",
"I. c white",
/* pixels */
"                                                                ",
"                                  . X                           ",
"                    o O + @     # $ % &                         ",
"                  * = - ; : >   , < 1 2 3                       ",
"                  @ 4 5 6 7 8   9 0 q w e                       ",
"                    r t y u i p X a s q d f               g     ",
"                    h j k l z x c v b n m #         g           ",
"                      . M N B V s q C Z A S                     ",
"                        D F G H J q q q K L             P       ",
"                        I U Y T C q q q R c                     ",
"            g           E W Q < ! w q R ~ ^ g                   ",
"                        / ( Q < ) _ ` ' ] [                     ",
"      P                 { } Q < |  ...X.o.O.                    ",
"                        +.@.#.< $.%.&.*.=.-.                    ",
"                          ;.:.>.,.<.1.2.3.4.                    ",
"                        p 5.6.7.8.9.0.q.w.>                     ",
"                        e.r.t.y.u.i.p.a.s.d.                    ",
"                        f.g.h.j.k.l.z.x.g.c.                    ",
"                        v.b.n.m.M.N.B.V.C.v.                    ",
"                          Z.A.S.D.F.( G.                        ",
"                          v.H.J.p K.L.P.                        ",
"                          g                               g     ",
"                    g                               g           ",
"                                                                ",
"                        P                               P       ",
"                                                                ",
"            g                               g                   ",
"                                                                ",
"      P                               P                         ",
"                                                                ",
"                                                                ",
"                                                                "
};
