/* XPM */
static char *result[] = {
/* columns rows colors chars-per-pixel */
"32 32 213 2 ",
"   c #D8C880",
".  c #C1CA6B",
"X  c #84D033",
"o  c #D3C97B",
"O  c #C6CA70",
"+  c #CEC977",
"@  c #A3CD50",
"#  c #88D037",
"$  c #C4CA6E",
"%  c #69D31A",
"&  c #A2CD4F",
"*  c #85D034",
"=  c #A1CD4E",
"-  c #91CF3F",
";  c #5AD50D",
":  c #BFCB69",
">  c #D5C87D",
",  c #77D227",
"<  c #AFCC5B",
"1  c #63D415",
"2  c #93CF41",
"3  c #B4CC5F",
"4  c #71D222",
"5  c #BBCC67",
"6  c #6CD41F",
"7  c #87D137",
"8  c #74D224",
"9  c #54D507",
"0  c #C4A078",
"q  c #DBB770",
"w  c #DF9D58",
"e  c #E18B48",
"r  c #E48846",
"t  c #CD9139",
"y  c #90A410",
"u  c #6AC60D",
"i  c #8AD13A",
"p  c #5ED410",
"a  c #6AD31B",
"s  c #8ECF3C",
"d  c #D8C67E",
"f  c #E87129",
"g  c #EF7217",
"h  c #F37D11",
"j  c #F48010",
"k  c #F37B12",
"l  c #EF7118",
"z  c #CB7919",
"x  c #77B70A",
"c  c #78D229",
"v  c #A9CD55",
"b  c #6FD220",
"n  c #57D50A",
"m  c #80BF34",
"M  c #DF9C57",
"N  c #EB6D1E",
"B  c #F78B0B",
"V  c #FE9F01",
"C  c #FFA100",
"Z  c #FFA000",
"A  c #FE9C02",
"S  c #F67F10",
"D  c #D7721A",
"F  c #96B326",
"G  c #82D232",
"H  c #98CE46",
"J  c #D6C87E",
"K  c #DEA45E",
"L  c #E76920",
"P  c #F7830A",
"I  c #FD8D00",
"U  c #FC8D00",
"Y  c #FD9400",
"T  c #FF9E00",
"R  c #FF9F00",
"E  c #F58010",
"W  c #DC792A",
"Q  c #D2C071",
"!  c #B08460",
"~  c #DDAC66",
"^  c #E86F27",
"/  c #F6870C",
"(  c #FC8B00",
")  c #FA7E00",
"_  c #FA7F00",
"`  c #F97800",
"'  c #FA7A00",
"]  c #FD9500",
"[  c #FD9A03",
"{  c #ED6F1C",
"}  c #DEA863",
"|  c #DBB36C",
" . c #E7732D",
".. c #F5830F",
"X. c #F97600",
"o. c #FE9700",
"O. c #FE9D01",
"+. c #EE7118",
"@. c #DEA25D",
"#. c #DABB74",
"$. c #E57935",
"%. c #F27B12",
"&. c #FD9501",
"*. c #FE9600",
"=. c #FE9B00",
"-. c #FB8600",
";. c #F98E09",
":. c #E96E26",
">. c #DBB56E",
",. c #D9C27A",
"<. c #E4823E",
"1. c #F07615",
"2. c #FD9902",
"3. c #FB8100",
"4. c #F97700",
"5. c #FE9900",
"6. c #FE9A00",
"7. c #FB8000",
"8. c #F98D08",
"9. c #EC6D1C",
"0. c #E09752",
"q. c #D8C77F",
"w. c #E28D49",
"e. c #EE7018",
"r. c #FC9904",
"t. c #FE9800",
"y. c #FB8300",
"u. c #F7890A",
"i. c #EB6C1E",
"p. c #E1944F",
"a. c #D9C57D",
"s. c #DF9A55",
"d. c #EC6E1C",
"f. c #F98D07",
"g. c #FD8E00",
"h. c #FD9100",
"j. c #FB8400",
"k. c #FB7F00",
"l. c #FE9E01",
"z. c #F6860D",
"x. c #EA6D22",
"c. c #DEA660",
"v. c #F88E09",
"b. c #FE9400",
"n. c #FC8E00",
"m. c #FA8203",
"M. c #F27A12",
"N. c #E8712B",
"B. c #DBB46D",
"V. c #E7722C",
"C. c #FD9200",
"Z. c #F97500",
"A. c #FB9406",
"S. c #EF7317",
"D. c #E57C38",
"F. c #DABE77",
"G. c #F27C12",
"H. c #FD9401",
"J. c #F88C0A",
"K. c #E28B47",
"L. c #FC8C00",
"P. c #FA7D00",
"I. c #F47F0F",
"U. c #E86E26",
"Y. c #DEA35E",
"T. c #EB6E1F",
"R. c #FA9407",
"E. c #FFA200",
"W. c #FE9C00",
"Q. c #FC9705",
"!. c #F07715",
"~. c #E67631",
"^. c #DBB871",
"/. c #F57F0D",
"(. c #FB8500",
"). c #FC8A00",
"_. c #FD9300",
"`. c #F67E0A",
"'. c #ED6E1C",
"]. c #E38541",
"[. c #DAB972",
"{. c #E28946",
"}. c #F17814",
"|. c #FD9801",
" X c #FC8900",
".X c #FF9C00",
"XX c #D9C47C",
"oX c #DDA761",
"OX c #EA6E21",
"+X c #FA9306",
"@X c #F98606",
"#X c #F07516",
"$X c #E57834",
"%X c #CE9061",
"&X c #E57835",
"*X c #F37F11",
"=X c #FF9F01",
"-X c #EC6B1D",
";X c #E28A46",
":X c #DABD75",
">X c #EA671F",
",X c #FA9107",
"<X c #FC9804",
"1X c #E8712A",
"2X c #DEA05A",
"3X c #E96923",
"4X c #F5830E",
"5X c #ED6E1B",
"6X c #E4803B",
"7X c #E86C26",
"8X c #E57B37",
"9X c #D9C179",
"0X c white",
/* pixels */
"                                      . X o O +                 ",
"                                      @ # $ % &                 ",
"                                      * = - ; : > o             ",
"                                    + , < 1 2 3 4 2             ",
"                                    5 6 7 8 = ; 9 @             ",
"                          0 q w e r t y u i p a @ s *     0     ",
"                    0   d w f g h j k l z x c v b n m           ",
"                        M N B V C C Z A S D F G H : J           ",
"                      K L P I U Y T C Z R E W Q         !       ",
"                    ~ ^ / ( ) _ ` ' ] Z Z [ { }                 ",
"            0     |  ...Z Z Z Z T ( X.o.C O.+.@.                ",
"                #.$.%.&.*.=.Z Z Z C -._ C ;.:.>.                ",
"      !       ,.<.1.2.3.` 4.3.5.C Z 6.7.8.9.0.q.                ",
"            d w.e.r.C R T t.y.` 5.C Z u.i.p.a.                  ",
"            s.d.f.g.h.=.C C Z j.k.l.z.x.M d                     ",
"          c.x.v.b.) ' 4.n.Z Z =.m.M.N.c.                        ",
"        B.V.z.C C C R C.Z.h.C A.S.D.B.                          ",
"      F.D.G.H.g.] R Z C g.j.J.9.K.F.                            ",
"    d w.g [ L.P.4.7.T C A I.U.M a.                              ",
"    Y.T.R.E.Z Z W.' U Q.!.~.~                                   ",
"  ^. ./.(.).W.Z C _.`.'.].[.                                    ",
"d {.}.|. XP.' .XA j :.s.XX0                               0     ",
"oXOX+XC C Z y.@X#X$X%X                              0           ",
"&X*XZ Z C =X/ -X;X:X                                            ",
">X,XE.C <X%.1X2Xd       !                               !       ",
"3X4X;.j 5X6XB.                                                  ",
"p.7X3X8Xw 9X0                               0                   ",
"                                                                ",
"      !                               !                         ",
"                                                                ",
"                                                                ",
"                                                                "
};
