/* XPM */
static char *result[] = {
/* columns rows colors chars-per-pixel */
"32 32 116 2 ",
"   c #5F4B37",
".  c #78532F",
"X  c #604B37",
"o  c #6A4E34",
"O  c #694F38",
"+  c #6F5133",
"@  c #65513D",
"#  c #6D543C",
"$  c #755232",
"%  c #7A5532",
"&  c #7F5833",
"*  c #735439",
"=  c #4E4E4E",
"-  c #574D44",
";  c #584F48",
":  c #5C5145",
">  c #5D544B",
",  c #4F4F50",
"<  c #4F5050",
"1  c #525253",
"2  c #5C5C5C",
"3  c #6E5740",
"4  c #60554C",
"5  c #705841",
"6  c #7D5C40",
"7  c #776453",
"8  c #7D6856",
"9  c #656565",
"0  c #6C6D6D",
"q  c #736C66",
"w  c #76706B",
"e  c #6F6F70",
"r  c #777878",
"t  c #7C7C7C",
"y  c #805733",
"u  c #845B35",
"i  c #895F37",
"p  c #855E39",
"a  c #895F38",
"s  c #8B6037",
"d  c #87603B",
"f  c #8B6139",
"g  c #835F40",
"h  c #8B6643",
"j  c #8E6944",
"k  c #86654A",
"l  c #88674A",
"z  c #8C6B4C",
"x  c #916F4F",
"c  c #806A57",
"v  c #8C6E54",
"b  c #826C59",
"n  c #8D735D",
"m  c #837263",
"M  c #8F7662",
"N  c #847568",
"B  c #917A66",
"V  c #947E6D",
"C  c #96816E",
"Z  c #958272",
"A  c #9A8572",
"S  c #92857A",
"D  c #998779",
"F  c #99897C",
"G  c #B38E70",
"H  c #C4A078",
"J  c #848484",
"K  c #878888",
"L  c #8C8D8D",
"P  c #9E8E81",
"I  c #94908D",
"U  c #9C948E",
"Y  c #8F8F90",
"T  c #929292",
"R  c #9E9791",
"E  c #979798",
"W  c #979898",
"Q  c #9A9A9A",
"!  c #A2968C",
"~  c #A5998F",
"^  c #A69B93",
"/  c #A89D95",
"(  c #A89F99",
")  c #BBB28C",
"_  c #A9A593",
"`  c #BDA794",
"'  c #B7B29E",
"]  c #A4A5A6",
"[  c #ADA6A0",
"{  c #ADA8A4",
"}  c #ADACAC",
"|  c #B0A9A3",
" . c #B2AFAD",
".. c #B3B1AE",
"X. c #B4B3B3",
"o. c #BDBCBC",
"O. c #C3B888",
"+. c #C5BCB4",
"@. c #C0BFBF",
"#. c #D7C884",
"$. c #D8C880",
"%. c #D6C98B",
"&. c #D5C994",
"*. c #D2C89B",
"=. c #CDC6A8",
"-. c #D2C9A4",
";. c #D2CAAA",
":. c #CCC7B1",
">. c #CFCAB1",
",. c #CECBBB",
"<. c #D0CBB3",
"1. c #BFC0C0",
"2. c #C5C5C5",
"3. c #CBCAC5",
"4. c #C7C8C8",
"5. c #CACACA",
/* pixels */
"$.$.$.$.$.$.$.$.$.$.$.#.$.$.$.$.$.#.$.$.$.$.$.$.$.$.$.$.$.$.$.$.",
"$.$.$.$.$.$.$.$.#.#.%.%.&.&.&.&.&.&.&.&.&.%.$.$.$.$.$.$.$.$.$.$.",
"$.$.$.$.$.$.$.$.&.:.3.5.4.5.5.5.5.3.5.5.3.,.=.&.$.$.$.$.$.$.$.$.",
"$.$.$.$.$.$.%.<.5.2.4.5.4.2.@.2.@.2.5.5.5.5.4.3.-.#.$.$.$.$.$.$.",
"$.$.$.$.$.%.,.5.5.5.4.o.o.X.{ | {  .o.o.2.5.4.4.5.;.#.#.$.$.$.$.",
"$.$.$.$.%.,.5.5.5.1.o.[ F n v * g M V ^ X.1.2.5.5.5.-.#.$.H $.$.",
"$.$.$.$.;.5.5.5.o.} P z z p j . y j p z B { X.1.5.5.3.&.$.$.$.$.",
"$.$.$.%.3.5.5.1. .V 6 h p y i % u p & i k g / X.2.5.5.;.$.$.$.$.",
"$.$.$.*.4.5.5.X.V z p i u u i % u y y f u h v / o.4.5.3.G #.#.$.",
"$.$.$.>.4.5.1./ k u i i i u f % y f y i a a y M  .2.5.5.&.#.$.$.",
"$.$.#.,.4.4. .n p i a f i y i % u f y i f f i g P o.5.5.*.$.$.$.",
"$.$.#.,.5.4.( v p a f f u y f % u f y i a a u a V  .2.4.-.$.$.$.",
"$.$.#.+.4.@.D u u i f a i u f % & f y f i i u u g | 2.4.-.$.$.$.",
"$.$.#.,.4.o.Z z u i f f i u f % u f y s a a i u x / 4.5.-.$.$.$.",
"$.$.#.,.4.X.m * # 3 3 3 * 3 3 o * # @ 5 3 3 3 3 3 R 4.5.-.$.$.$.",
"$.$.#.,.4.o.0 e r = r e , t 0   : t 0 1 J 9 1 J 2 Y 4.5.-.$.$.$.",
"$.$.#.,.5.o.0 Y Q 1 Q Y 1 ] J   : ] K 1 } t 2 X.e L 4.5.-.$.$.$.",
"$.$.#.,.5.o.q ; > ; > : - > : o @ > : - > : - > - I 2.5.-.$.$.$.",
"$.$.#.,.5.o.Z h i i p p u & f % u i % i i p i p z ^ 4.5.-.$.$.$.",
"$.$.#.,.5.o.A j s d f f i u f $ u f % f f f f f z ^ 4.5.-.$.$.$.",
"$.$.#.,.4.1.Z f s f f f u u f % u f & i f p f f j ^ 5.5.-.$.$.$.",
"$.$.#.,.4.o.V h s i p f u y i % u f & f i i f f j ! 2.5.-.H $.$.",
"$.$.#.,.5.,.C j f s f f i u f . u f u d f i f f z ~ 2.5.-.$.$.$.",
"$.$.#.,.5.@.C l i p d f u % d % u u % d p p f p z ^ 5.5.-.$.$.$.",
"$.$.#.,.5.@.w : > > > > ; > 4 o 3 > > ; > > > > > T 2.5.` $.$.$.",
"$.$.#.,.5.@.0 T Q = Q E < ] J   - ] K 1 } r 2 X.e T 5.5.-.$.$.$.",
"$.$.#.,.5.1.0 0 r = r w < t 0 X : r 0 = J 9 1 J 2 T 5.5.;.$.$.$.",
"$.$.#.,.5.X.N * # # # # # @ # + + # O # # # * # 5 R 4.5.;.$.$.$.",
"$.$.#.+.5.1.A j y f f f s u f % u f y f i s f f x ^ 4.5.-.$.$.$.",
"$.$.#.,.5.1.V h i s s s u y f . & f y d d f i i z ~ 2.5.-.$.$.$.",
") ) ) ..X.X.S b b b b 8 c c 8 7 8 8 8 c 8 b b b m U ..X.' ) ) O.",
"W Q Q Q ] ] E Q Y T E I L L K L T T Y I T T T E W W W R Q Q Q _ "
};
