/* XPM */
static char *result[] = {
/* columns rows colors chars-per-pixel */
"110 110 76 1 ",
"  c #FDA006",
". c #FEA705",
"X c #FDA406",
"o c #FDA706",
"O c #FEAA05",
"+ c #FDAB06",
"@ c #FEAD05",
"# c #FEAE05",
"$ c #FDAD06",
"% c #FDAE06",
"& c #FEB105",
"* c #FDB006",
"= c #FDB106",
"- c #FEB405",
"; c #FEB505",
": c #FDB406",
"> c #FDB506",
", c #FDB706",
"< c #FEB805",
"1 c #FEBB05",
"2 c #FDB806",
"3 c #FDBB06",
"4 c #FEBC05",
"5 c #FEBF05",
"6 c #FEC205",
"7 c #FFC205",
"8 c #FDC206",
"9 c #FEC505",
"0 c #FFC505",
"q c #FEC605",
"w c #FEC905",
"e c #FFC905",
"r c #FECC05",
"t c #FECD05",
"y c #FFCD05",
"u c #FED005",
"i c #FFD005",
"p c #FED305",
"a c #FFD305",
"s c #FFD705",
"d c #FFD915",
"f c #FFDA15",
"g c #FFDC24",
"h c #FFDE33",
"j c #FFDF33",
"k c #FFDE34",
"l c #FFE143",
"z c #FFE144",
"x c #FFE353",
"c c #FFE453",
"v c #FFE454",
"b c #FFE662",
"n c #FFE663",
"m c #FFE871",
"M c #FFE872",
"N c #FFE972",
"B c #FFEB81",
"V c #FFEB82",
"C c #FFED91",
"Z c #FFEE91",
"A c #FFEE92",
"S c #FFF0A1",
"D c #FFF2B0",
"F c #FFF3B0",
"G c #FFF2B1",
"H c #FFF5C0",
"J c #FFF5C1",
"K c #FFF7D0",
"L c #FFF8D0",
"P c #FFF8D1",
"I c #FFFADF",
"U c #FFFAE0",
"Y c #FFFCEF",
"T c #FFFDEF",
"R c white",
"E c None",
/* pixels */
"EEEEEEEEEEEEEEEEEEEEEEEEEEEEEEEEEEEEEEEEEEEEEEEEEEEEEEEEEEEEEEEEEEEEEEEEEEEEEEEEEEEEEEEEEEEEEEEEEEEEEEEEEEEEEE",
"EEEEEEEEEEEEEEEEEEEEEEEEEEEEEEEEEEEEEEEEEEEEEEEEEEEEEEEEEEEEEEEEEEEEEEEEEEEEEEEEEEEEEEEEEEEEEEEEEEEEEEEEEEEEEE",
"EEEEEEEEEEEEEEEEEEEEEEEEEEEEEEEEEEEEEEEEEEEEEEEEEEEEEEEEEEEEEEEEEEEEEEEEEEEEEEEEEEEEEEEEEEEEEEEEEEEEEEEEEEEEEE",
"EEEEEEEEEEEEEEEEEEEEEEEEEEEEEEEEEEEEEEEEEEEEEEEERRRRRRRRRRRRRREEEEEEEEEEEEEEEEEEEEEEEEEEEEEEEEEEEEEEEEEEEEEEEE",
"EEEEEEEEEEEEEEEEEEEEEEEEEEEEEEEEEEEEEEEEEERRRRRRRRRRRRRRRRRRRRRRRRREEEEEEEEEEEEEEEEEEEEEEEEEEEEEEEEEEEEEEEEEEE",
"EEEEEEEEEEEEEEEEEEEEEEEEEEEEEEEEEEEEEEERRRRRRRRRRRRRRRRRRRRRRRRRRRRRRRREEEEEEEEEEEEEEEEEEEEEEEEEEEEEEEEEEEEEEE",
"EEEEEEEEEEEEEEEEEEEEEEEEEEEEEEEEEEEERRRRRRRRRRRRRRRRRRRRRRRRRRRRRRRRRRRRRREEEEEEEEEEEEEEEEEEEEEEEEEEEEEEEEEEEE",
"EEEEEEEEEEEEEEEEEEEEEEEEEEEEEEEEEERRRRRRRRRRRRRRRRRRRRRRRRRRRRRRRRRRRRRRRRRREEEEEEEEEEEEEEEEEEEEEEEEEEEEEEEEEE",
"EEEEEEEEEEEEEEEEEEEEEEEEEEEEEEEERRRRRRRRRRRRRRRRRRRRRRRRRRRRRRRRRRRRRRRRRRRRRREEEEEEEEEEEEEEEEEEEEEEEEEEEEEEEE",
"EEEEEEEEEEEEEEEEEEEEEEEEEEEEEERRRRRRRRRRRRRRRRRRRRRRRRRRRRRRRRRRRRRRRRRRRRRRRRRREEEEEEEEEEEEEEEEEEEEEEEEEEEEEE",
"EEEEEEEEEEEEEEEEEEEEEEEEEEEERRRRRRRRRRRRRRRRRRLSNnjgdssssdglcVFLRRRRRRRRRRRRRRRRRREEEEEEEEEEEEEEEEEEEEEEEEEEEE",
"EEEEEEEEEEEEEEEEEEEEEEEEEERRRRRRRRRRRRRRRRHBldssssssssssssssssssslNHRRRRRRRRRRRRRRRREEEEEEEEEEEEEEEEEEEEEEEEEE",
"EEEEEEEEEEEEEEEEEEEEEEEEERRRRRRRRRRRRRRHNdssssssssssssssssssssssssssgnHRRRRRRRRRRRRRREEEEEEEEEEEEEEEEEEEEEEEEE",
"EEEEEEEEEEEEEEEEEEEEEEEERRRRRRRRRRRRTBdssssssssssssssssssssssssssssssssgSURRRRRRRRRRRREEEEEEEEEEEEEEEEEEEEEEEE",
"EEEEEEEEEEEEEEEEEEEEEERRRRRRRRRRRRTBdsssssssssssssssssssssssssssssssssssssnURRRRRRRRRRRREEEEEEEEEEEEEEEEEEEEEE",
"EEEEEEEEEEEEEEEEEEEEERRRRRRRRRRRTBdsssssssssssssssssssssssssssssssssssssssssMURRRRRRRRRRREEEEEEEEEEEEEEEEEEEEE",
"EEEEEEEEEEEEEEEEEEEERRRRRRRRRRRCdssssssssssssssssssssssssssssssssssssssssssssgSRRRRRRRRRRREEEEEEEEEEEEEEEEEEEE",
"EEEEEEEEEEEEEEEEEEERRRRRRRRRRIlsssssssssssssssssssssssssssssssssssssssssssssssslURRRRRRRRRREEEEEEEEEEEEEEEEEEE",
"EEEEEEEEEEEEEEEEEERRRRRRRRRRCdssssssssssssssssssssssssssssssssssssssssssssssssssfARRRRRRRRRREEEEEEEEEEEEEEEEEE",
"EEEEEEEEEEEEEEEEERRRRRRRRRTmssssssssssssssssssssssssssssssssssssssssssssssssssssssMRRRRRRRRRREEEEEEEEEEEEEEEEE",
"EEEEEEEEEEEEEEEERRRRRRRRRIjssssssssssssssssssssssssssssssssssssssssssssssssssssssssgURRRRRRRRREEEEEEEEEEEEEEEE",
"EEEEEEEEEEEEEEERRRRRRRRRIgssssssssssssssssssssssssssssssssssssssssssssssssssssssssssgURRRRRRRRREEEEEEEEEEEEEEE",
"EEEEEEEEEEEEEERRRRRRRRRKgssssssssssssssssssssssssssssssssssssssssssssssssssssssssssssgLRRRRRRRRREEEEEEEEEEEEEE",
"EEEEEEEEEEEEEERRRRRRRRKdssssssssssssssssssssssssssssssssssssssssssssssssssssssssssssssfLRRRRRRRREEEEEEEEEEEEEE",
"EEEEEEEEEEEEERRRRRRRRIgssssssssssssssssssssssssssssssssssssssssssssssssssssssssssssssssgURRRRRRRREEEEEEEEEEEEE",
"EEEEEEEEEEEERRRRRRRRIgssssssssssssssssssssssssssssssssssssssssssssssssssssssssssssssssssgURRRRRRRREEEEEEEEEEEE",
"EEEEEEEEEEERRRRRRRRRgssssssssssssssssssssssssssssssssssssssssssssssssssssssssssssssssssssjTRRRRRRREEEEEEEEEEEE",
"EEEEEEEEEEERRRRRRRRmsssssssssssssssssssssssssssssspt665569wpssssssssssssssssssssssssssssssMRRRRRRRREEEEEEEEEEE",
"EEEEEEEEEERRRRRRRRCsssssssssssssssssssssssssssp5:o          o=6usssssssssssssssssssssssssssARRRRRRRREEEEEEEEEE",
"EEEEEEEEEERRRRRRRIdsssssssssssssssssssssssss9$                  %6sssssssssssssssssssssssssfURRRRRRREEEEEEEEEE",
"EEEEEEEEERRRRRRRRlsssssssssssssssssssssssp3X                      o6sssssssssssssssssssssssslRRRRRRRREEEEEEEEE",
"EEEEEEEEERRRRRRRSssssssssssssssssssssssswo                          o6sssssssssssssssssssssssARRRRRRREEEEEEEEE",
"EEEEEEEERRRRRRRIgsssssssssssssssssssssp2                              :usssssssssssssssssssssfTRRRRRRREEEEEEEE",
"EEEEEEEERRRRRRRmsssssssssssssssssssssuo                                ousssssssssssssssssssssVRRRRRRREEEEEEEE",
"EEEEEEERRRRRRRIssssssssssssssssssssswX                                  X9ssssssssssssssssssssfTRRRRRRREEEEEEE",
"EEEEEEERRRRRRRbssssssssssssssssssss8                                      6ssssssssssssssssssssVRRRRRRREEEEEEE",
"EEEEEERRRRRRRIssssssssssssssssssss9                                        wsssssssssssssssssssfTRRRRRRREEEEEE",
"EEEEEERRRRRRRSsssssssssssssssssssuX                   O@                   XtsssssssssssssssssssVRRRRRRREEEEEE",
"EEEEEERRRRRRRgssssssssssssssssssuo                  oyssio                  oassssssssssssssssssfRRRRRRREEEEEE",
"EEEEERRRRRRRHsssssssssssssssssss:                  oissssio                  >sssssssssssssssssssHRRRRRRREEEEE",
"EEEEERRRRRRRbssssssssssssssssss6                  XisssssstX                  wssssssssssssssssssNRRRRRRREEEEE",
"EEEEERRRRRRRgsssssssssssssssssso                 XysssssssstX                 oasssssssssssssssssfRRRRRRREEEEE",
"EEEEERRRRRRHssssssssssssssssss6                  6ssssssssss6                  4ssssssssssssssssssHRRRRRREEEEE",
"EEEERRRRRRRMsssssssssssssssssso                 5ssssssssssss6                 XasssssssssssssssssVRRRRRRREEEE",
"EEEERRRRRRRlsssssssssssssssss6                 4ssssssssssssss1                 6ssssssssssssssssslRRRRRRREEEE",
"EEEERRRRRRRssssssssssssssssss$              X;essssssssssssssssi;               %sssssssssssssssssfRRRRRRREEEE",
"EEEERRRRRRLsssssssssssssssssu             X4assssssssssssssssssssi<o             asssssssssssssssssPRRRRRREEEE",
"EEEERRRRRRDsssssssssssssssss6           o4asssssssssssssssssssssssss6o           5sssssssssssssssssSRRRRRREEEE",
"EEERRRRRRRVsssssssssssssssss*         oessssssssssssssssssssssssssssss6o         -sssssssssssssssssNRRRRRRREEE",
"EEERRRRRRRcssssssssssssssssso         issssssssssssssssssssssssssssssssiX        osssssssssssssssssnRRRRRRREEE",
"EEERRRRRRRlssssssssssssssssa         &ssssssssssssssssssssssssssssssssss-         asssssssssssssssskRRRRRRREEE",
"EEERRRRRRRgssssssssssssssssw         -ssssssssssssssssssssssssssssssssss-         yssssssssssssssssgRRRRRRREEE",
"EEERRRRRRRdssssssssssssssss9         Xassssssssssssssssssssssssssssssssso         6ssssssssssssssssfRRRRRRREEE",
"EEERRRRRRRsssssssssssssssss6          4ssssssssssssssssssssssssssssssss3          6sssssssssssssssssRRRRRRREEE",
"EEERRRRRRRsssssssssssssssss6          XassssssssssssssssssssssssssssssuX          5sssssssssssssssssRRRRRRREEE",
"EEERRRRRRRsssssssssssssssss6           :ssssssssssssssssssssssssssssss:           5sssssssssssssssssRRRRRRREEE",
"EEERRRRRRRsssssssssssssssss6            wssssssssssssssssssssssssssssu            6sssssssssssssssssRRRRRRREEE",
"EEERRRRRRRdssssssssssssssss6            %ssssssssssssssssssssssssssss$            qssssssssssssssssfRRRRRRREEE",
"EEERRRRRRRgssssssssssssssssr             wssssssssssssssssssssssssss6             essssssssssssssssgRRRRRRREEE",
"EEERRRRRRRhssssssssssssssssa             oassssssssssssssssssssssssso             asssssssssssssssszRRRRRRREEE",
"EEERRRRRRRnssssssssssssssssso             yssssssssssssssssssssssssr             osssssssssssssssssvRRRRRRREEE",
"EEERRRRRRRMsssssssssssssssss-             qssssssssssssssssssssssss9             &sssssssssssssssssVRRRRRRREEE",
"EEEERRRRRRSsssssssssssssssss5             5ssssssssssssssssssssssss5             6sssssssssssssssssGRRRRRREEEE",
"EEEERRRRRRLsssssssssssssssssa             <ssssssssssssssssssssssss<             isssssssssssssssssPRRRRRREEEE",
"EEEERRRRRRRdsssssssssssssssss$            -ssssssssssssssssssssssss*            #ssssssssssssssssssRRRRRRREEEE",
"EEEERRRRRRRlsssssssssssssssss9            +ssssssssssssssssssssssss$            6ssssssssssssssssszRRRRRRREEEE",
"EEEERRRRRRRVssssssssssssssssssX           osssssssssssssssssssssssso           ossssssssssssssssssNRRRRRRREEEE",
"EEEEERRRRRRHssssssssssssssssss1            ssssssssssssssssssssssss            6ssssssssssssssssssJRRRRRREEEEE",
"EEEEERRRRRRRdsssssssssssssssssao           issssssssssssssssssssssr           ossssssssssssssssssgRRRRRRREEEEE",
"EEEEERRRRRRRMssssssssssssssssssw           2sssssssu6,$%,9tsssssss3           6ssssssssssssssssssnRRRRRRREEEEE",
"EEEEERRRRRRRHsssssssssssssssssss<           :tu6,$X        X%,9tu2           ;sssssssssssssssssssJRRRRRRREEEEE",
"EEEEEERRRRRRRdssssssssssssssssssao                                          oissssssssssssssssssgRRRRRRREEEEEE",
"EEEEEERRRRRRRVsssssssssssssssssssiX                                        XisssssssssssssssssssSRRRRRRREEEEEE",
"EEEEEERRRRRRRYdsssssssssssssssssssw                                        9ssssssssssssssssssssURRRRRRREEEEEE",
"EEEEEEERRRRRRRVssssssssssssssssssss6                                      6ssssssssssssssssssssnRRRRRRREEEEEEE",
"EEEEEEERRRRRRRYdssssssssssssssssssss9X                                  XesssssssssssssssssssssURRRRRRREEEEEEE",
"EEEEEEEERRRRRRRVsssssssssssssssssssssio                                oysssssssssssssssssssssNRRRRRRREEEEEEEE",
"EEEEEEEERRRRRRRYdsssssssssssssssssssssi;                              ;asssssssssssssssssssssgURRRRRRREEEEEEEE",
"EEEEEEEEERRRRRRRZsssssssssssssssssssssss6o                          oesssssssssssssssssssssssSRRRRRRREEEEEEEEE",
"EEEEEEEEERRRRRRRRlssssssssssssssssssssssss6o                      X4assssssssssssssssssssssszRRRRRRRREEEEEEEEE",
"EEEEEEEEEERRRRRRRIdsssssssssssssssssssssssss6@                  #0assssssssssssssssssssssssdURRRRRRREEEEEEEEEE",
"EEEEEEEEEERRRRRRRRZsssssssssssssssssssssssssssi6&o          .-5asssssssssssssssssssssssssssARRRRRRRREEEEEEEEEE",
"EEEEEEEEEEERRRRRRRRMssssssssssssssssssssssssssssssae075577yassssssssssssssssssssssssssssssNRRRRRRRREEEEEEEEEEE",
"EEEEEEEEEEEERRRRRRRYhssssssssssssssssssssssssssssssssssssssssssssssssssssssssssssssssssssgRRRRRRRREEEEEEEEEEEE",
"EEEEEEEEEEEERRRRRRRRIgssssssssssssssssssssssssssssssssssssssssssssssssssssssssssssssssssgURRRRRRRREEEEEEEEEEEE",
"EEEEEEEEEEEEERRRRRRRRIgssssssssssssssssssssssssssssssssssssssssssssssssssssssssssssssssgURRRRRRRREEEEEEEEEEEEE",
"EEEEEEEEEEEEEERRRRRRRRKdssssssssssssssssssssssssssssssssssssssssssssssssssssssssssssssdKRRRRRRRREEEEEEEEEEEEEE",
"EEEEEEEEEEEEEERRRRRRRRRKgssssssssssssssssssssssssssssssssssssssssssssssssssssssssssssgKRRRRRRRRREEEEEEEEEEEEEE",
"EEEEEEEEEEEEEEERRRRRRRRRIgssssssssssssssssssssssssssssssssssssssssssssssssssssssssssgURRRRRRRRREEEEEEEEEEEEEEE",
"EEEEEEEEEEEEEEEERRRRRRRRRIgssssssssssssssssssssssssssssssssssssssssssssssssssssssssjURRRRRRRRREEEEEEEEEEEEEEEE",
"EEEEEEEEEEEEEEEEERRRRRRRRRRMssssssssssssssssssssssssssssssssssssssssssssssssssssssNTRRRRRRRRREEEEEEEEEEEEEEEEE",
"EEEEEEEEEEEEEEEEEERRRRRRRRRRZdssssssssssssssssssssssssssssssssssssssssssssssssssdARRRRRRRRRREEEEEEEEEEEEEEEEEE",
"EEEEEEEEEEEEEEEEEEERRRRRRRRRRIlsssssssssssssssssssssssssssssssssssssssssssssssszURRRRRRRRRREEEEEEEEEEEEEEEEEEE",
"EEEEEEEEEEEEEEEEEEEERRRRRRRRRRRSgssssssssssssssssssssssssssssssssssssssssssssdARRRRRRRRRRREEEEEEEEEEEEEEEEEEEE",
"EEEEEEEEEEEEEEEEEEEEERRRRRRRRRRRIMsssssssssssssssssssssssssssssssssssssssssdVTRRRRRRRRRRREEEEEEEEEEEEEEEEEEEEE",
"EEEEEEEEEEEEEEEEEEEEEERRRRRRRRRRRRIbsssssssssssssssssssssssssssssssssssssdVTRRRRRRRRRRRREEEEEEEEEEEEEEEEEEEEEE",
"EEEEEEEEEEEEEEEEEEEEEEEERRRRRRRRRRRRISgssssssssssssssssssssssssssssssssdVTRRRRRRRRRRRREEEEEEEEEEEEEEEEEEEEEEEE",
"EEEEEEEEEEEEEEEEEEEEEEEEERRRRRRRRRRRRRRJbgssssssssssssssssssssssssssdNJRRRRRRRRRRRRRREEEEEEEEEEEEEEEEEEEEEEEEE",
"EEEEEEEEEEEEEEEEEEEEEEEEEEERRRRRRRRRRRRRRRJNzsssssssssssssssssssdzVJRRRRRRRRRRRRRRREEEEEEEEEEEEEEEEEEEEEEEEEEE",
"EEEEEEEEEEEEEEEEEEEEEEEEEEEERRRRRRRRRRRRRRRRRRKGVxzgdssssdgknNSKRRRRRRRRRRRRRRRRRREEEEEEEEEEEEEEEEEEEEEEEEEEEE",
"EEEEEEEEEEEEEEEEEEEEEEEEEEEEEERRRRRRRRRRRRRRRRRRRRRRRRRRRRRRRRRRRRRRRRRRRRRRRRRREEEEEEEEEEEEEEEEEEEEEEEEEEEEEE",
"EEEEEEEEEEEEEEEEEEEEEEEEEEEEEEEERRRRRRRRRRRRRRRRRRRRRRRRRRRRRRRRRRRRRRRRRRRRRREEEEEEEEEEEEEEEEEEEEEEEEEEEEEEEE",
"EEEEEEEEEEEEEEEEEEEEEEEEEEEEEEEEEERRRRRRRRRRRRRRRRRRRRRRRRRRRRRRRRRRRRRRRRRREEEEEEEEEEEEEEEEEEEEEEEEEEEEEEEEEE",
"EEEEEEEEEEEEEEEEEEEEEEEEEEEEEEEEEEEERRRRRRRRRRRRRRRRRRRRRRRRRRRRRRRRRRRRRREEEEEEEEEEEEEEEEEEEEEEEEEEEEEEEEEEEE",
"EEEEEEEEEEEEEEEEEEEEEEEEEEEEEEEEEEEEEEERRRRRRRRRRRRRRRRRRRRRRRRRRRRRRRREEEEEEEEEEEEEEEEEEEEEEEEEEEEEEEEEEEEEEE",
"EEEEEEEEEEEEEEEEEEEEEEEEEEEEEEEEEEEEEEEEEEERRRRRRRRRRRRRRRRRRRRRRRREEEEEEEEEEEEEEEEEEEEEEEEEEEEEEEEEEEEEEEEEEE",
"EEEEEEEEEEEEEEEEEEEEEEEEEEEEEEEEEEEEEEEEEEEEEEEERRRRRRRRRRRRRREEEEEEEEEEEEEEEEEEEEEEEEEEEEEEEEEEEEEEEEEEEEEEEE",
"EEEEEEEEEEEEEEEEEEEEEEEEEEEEEEEEEEEEEEEEEEEEEEEEEEEEEEEEEEEEEEEEEEEEEEEEEEEEEEEEEEEEEEEEEEEEEEEEEEEEEEEEEEEEEE",
"EEEEEEEEEEEEEEEEEEEEEEEEEEEEEEEEEEEEEEEEEEEEEEEEEEEEEEEEEEEEEEEEEEEEEEEEEEEEEEEEEEEEEEEEEEEEEEEEEEEEEEEEEEEEEE",
"EEEEEEEEEEEEEEEEEEEEEEEEEEEEEEEEEEEEEEEEEEEEEEEEEEEEEEEEEEEEEEEEEEEEEEEEEEEEEEEEEEEEEEEEEEEEEEEEEEEEEEEEEEEEEE"
};
