/* XPM */
static char *result[] = {
/* columns rows colors chars-per-pixel */
"32 32 131 2 ",
"   c #090E17",
".  c #131314",
"X  c #161B22",
"o  c #0B233F",
"O  c #363635",
"+  c #3A3A3A",
"@  c #504B33",
"#  c #585238",
"$  c #253241",
"%  c #05336C",
"&  c #3A4044",
"*  c #33455C",
"=  c #35485E",
"-  c #0E407D",
";  c #294A75",
":  c #2D527F",
">  c #414141",
",  c #4F4F4C",
"<  c #514E40",
"1  c #595757",
"2  c #585857",
"3  c #5B5A5B",
"4  c #774949",
"5  c #695E5E",
"6  c #6D6542",
"7  c #746C4C",
"8  c #656153",
"9  c #69665A",
"0  c #6D6B5E",
"q  c #736D55",
"w  c #7E7652",
"e  c #76725F",
"r  c #7B765F",
"t  c #636363",
"y  c #6B6362",
"u  c #6B6A61",
"i  c gray42",
"p  c #7D6262",
"a  c #766A68",
"s  c #797667",
"d  c #73736B",
"f  c #797668",
"g  c #777777",
"h  c #7C7B74",
"j  c #7B7A7A",
"k  c #9E5555",
"l  c #A25C5C",
"z  c #837A4F",
"x  c #946F51",
"c  c #847B56",
"v  c #887F54",
"b  c #807473",
"n  c #807F78",
"m  c #BC6464",
"M  c #D76C6B",
"N  c #8D8459",
"B  c #958A5A",
"V  c #9D915E",
"C  c #A78467",
"Z  c #B08460",
"A  c #A19665",
"S  c #AB9E66",
"D  c #BE9B74",
"F  c #ACA066",
"G  c #B3A56A",
"H  c #BDAF70",
"J  c #C4A078",
"K  c #C7B876",
"L  c #C9BA77",
"P  c #D3C37D",
"I  c #06428C",
"U  c #0C58B4",
"Y  c #0771F1",
"T  c #0975F9",
"R  c #7689A0",
"E  c #858584",
"W  c #8E8686",
"Q  c #8C8B8B",
"!  c #9D8989",
"~  c #959595",
"^  c #9D9B97",
"/  c #9B9A9A",
"(  c #A09F9A",
")  c #ACA587",
"_  c #B7AF8D",
"`  c #BAB28C",
"'  c #A3A29D",
"]  c #BFAF9E",
"[  c #A4A4A4",
"{  c #ABA9A4",
"}  c #ABABAB",
"|  c #BDB8A1",
" . c #B5B3AC",
".. c #B5B5B5",
"X. c #B8B6B5",
"o. c #BDBBB1",
"O. c #BCBBBB",
"+. c #C3A481",
"@. c #C9BC82",
"#. c #C6BB89",
"$. c #C1BB9E",
"%. c #C5BEA2",
"&. c #C3BFAE",
"*. c #C8BFB5",
"=. c #D4C585",
"-. c #D7C882",
";. c #D8C880",
":. c #D4C688",
">. c #D6C98D",
",. c #CEC495",
"<. c #CCC39A",
"1. c #D5C993",
"2. c #D2C79A",
"3. c #D4C999",
"4. c #C7C0A4",
"5. c #C8C1A5",
"6. c #CBC5A8",
"7. c #D2C9A3",
"8. c #D1CAAB",
"9. c #CFCBB7",
"0. c #C2C0BE",
"q. c #CDCABB",
"w. c #C5C4C4",
"e. c #C8C7C5",
"r. c #CCCBC6",
"t. c #CBCBCB",
"y. c #D5D5D5",
"u. c gray86",
"i. c #E6E6E6",
"p. c #ECECEC",
"a. c #F3F3F3",
/* pixels */
";.;.;.;.;.;.;.;.;.;.;.>.>.1.>.>.>.>.>.>.-.;.;.;.;.;.;.;.;.;.;.;.",
";.;.;.;.;.;.;.;.5.w.t.t.t.r.t.t.t.w.w.t.r.6.>.;.;.;.;.;.;.;.;.;.",
";.;.;.;.;.P >.r.t.w.} N ~ ..w.w.} d g Q t.t.t.8.-.;.;.;.;.;.;.;.",
";.;.;.;.;.1.r.e.t.w.g y.[ i X.O.g t.a.E } t.e.t.9.-.;.;.;.;.;.;.",
";.;.;.;.>.r.r.t.t...j ! k Q N ;.A } a.i.i w.t.t.r.8.;.P ;.;.;.;.",
";.;.;.;.9.r.t.t.} ..s b M k d H P 0 i.a.g } ..t.r.y.1.P ;.J ;.;.",
";.;.;.>.t.t.t.O.o.:.D 7 a m p < s u i E N ' ..O.t.t.0.P ;.;.;.;.",
";.;.;.8.e.t.w...:.;.;.P w y 4 2 i.a.a.y.3 A 5...t.t.r.>.;.;.;.;.",
";.;.;.q.t.t.O.<.-.-.P ;.x , 2 3 e.a.a.a.u.c -.&.w.t.e.3.Z ;.;.;.",
";.;.P e.t.0. .=.P -.;.;.B } ~ } a.a.a.a.a.f ;.<.X.t.t.7.;.;.;.;.",
";.;.;.r.t.0.] ;.;.;.;.;.N ..t.t.p.i.a.a.p.h J ;.O.w.t.7.;.;.;.;.",
";.;.;.r.t.X.,.;.;.;.;.;.N } y.y./ j p...g 0 ;.;.5.w.w.8.;.;.;.;.",
";.;.;.e.r.O.:.;.;.;.;.;.V ' t.t.~ O ..Q O 8 P ;.5.w.e.6.;.;.;.;.",
";.;.P r.e.X.:.;.;.;.;.;.K 0 t.y.p.u.5 n i.e ;.;.5.t.r.7.;.;.;.;.",
";.;.;.r.t...:.;.;.;.;.;.P G & R [ } 3 , s S ;.;.5.w.t.7.;.;.;.;.",
";.;.;.r.t.X.:.;.;.;.;.;.H 6 o % I $ -   B -.;.;.5.w.t.7.;.;.;.;.",
";.;.;.r.t.X.:.;.;.;.;.;.@ 3 [ % T T U X O N P ;.5.w.t.8.P ;.;.;.",
";.;.;.r.t.O.:.;.;.;.;.;.7 ' E * ; I , . ( w ;.;.5.w.t.7.;.;.;.;.",
";.;.;.r.t.0.:.;.;.;.;.;.L 6 > 3 j g i # w L ;.;.5.w.t.7.;.P ;.;.",
";.;.P t.t.O.:.;.;.;.;.;.;.F Q ~ z 5  .7 ;.;.;.;.4.0.t.7.;.;.;.;.",
";.;.;.r.t.w.:.P ;.;.;.;.;.L v z H V N F P P ;.;.$.w.t.7.;.;.;.;.",
";.;.;.r.t.O.:.-.;.;.;.;.;.J P ;.;.P ;.;.;.P ;.;.%.e.t.7.;.J ;.;.",
";.;.;.r.t.0.>.;.;.;.J ;.;.;.;.;.;.;.;.;.;.;.;.;.4.w.r.7.;.;.;.;.",
";.;.;.r.r.O.:.;.;.;.;.;.;.;.;.;.;.;.;.;.;.;.;.;.5.w.y.7.;.;.;.;.",
";.;.;.r.r.O.>.;.;.;.;.;.Z ;.;.;.;.;.;.;.;.;.;.;.5.e.t.8.Z ;.;.;.",
";.;.;.r.t...>.;.;.;.;.;.;.;.;.;.;.;.;.;.;.;.;.;.5.w.t.7.P ;.;.;.",
";.;.;.r.t.O.J ;.;.;.;.;.;.;.P ;.;.;.;.;.;.;.J ;.5.w.e.7.;.;.;.;.",
";.;.;.r.t.O.:.;.;.;.;.P ;.;.;.;.;.;.;.;.;.;.P =.4.w.t.7.;.;.;.;.",
"=.@.=.0.0...#.@.@.@.@.@.@.#.@.@.=.@.@.C L @.@.@.| O.0.4.=.=.=.P ",
"~ / ~ / } [ ~ ~ Q ~ Q Q E N R E E Q Q Q Q ~ ~ ~ ~ / ~ / / / _ =.",
"/ ~ ~ / [ / / ~ ~ / / ~ / / / / } / / / ~ ~ ~ / ( / ~ ( [ [ _ P ",
"^ / ^ ^ ^ ^ / / ^ ( ^ ^ ^ / ^ ^ ( / ' ( ^ ^ ^ ( / / ^ ^ ( { ` P "
};
