/* XPM */
static char *_7ea109dec0f42fa82b7cce51600f019utdsAA1U3CCcmBQe[] = {
/* columns rows colors chars-per-pixel */
"32 32 4 1 ",
"  c #18A068",
". c #40B080",
"X c #70C0A0",
"o c #A0D0C0",
/* pixels */
"................................",
"............ . ............. . .",
". . ......... ... . ......... ..",
".. ............... .............",
"................................",
"..........o...............o.....",
"...X...............X............",
"................................",
"................................",
".... . ............. . .........",
"..... ............... ..........",
"................................",
"......... . ............. . ....",
".......... ............... .....",
"................................",
"................................",
"................................",
"............ . ............. . .",
". . ......... ... . ......... ..",
".. ............... .............",
"................................",
"..........o...............o.....",
"...X...............X............",
"................................",
"................................",
".... . ............. . .........",
"..... ............... ..........",
"................................",
"......... . ............. . ....",
".......... ............... .....",
"................................",
"................................"
};
