/* XPM */
static char *result[] = {
/* columns rows colors chars-per-pixel */
"32 32 165 2 ",
"   c #D8C880",
".  c #D8C883",
"X  c #D6C98B",
"o  c #D6C98E",
"O  c #D7C888",
"+  c #D8C881",
"@  c #D2C79A",
"#  c #CDC9B8",
"$  c #CCCCCA",
"%  c gray80",
"&  c #C9C8C8",
"*  c #CBCACA",
"=  c #CACACA",
"-  c #CAC9C9",
";  c #CBCBCB",
":  c #CDCCC5",
">  c #CBC5A8",
",  c #D6C98D",
"<  c #CECBBF",
"1  c gray79",
"2  c #C7C6C6",
"3  c #C5C5C5",
"4  c #C6C6C6",
"5  c #C0C0C0",
"6  c gray77",
"7  c gray76",
"8  c gray78",
"9  c #CCCCCB",
"0  c #D1CAA9",
"q  c #D8C882",
"w  c #D5C992",
"e  c #CCCBC7",
"r  c #C8C8C8",
"t  c #B9B9B9",
"y  c #BCBCBC",
"u  c gray71",
"i  c #B9B8B7",
"p  c #BCBCB8",
"a  c #B1B1B1",
"s  c #BBBBBB",
"d  c gray73",
"f  c #C3C3C3",
"g  c #CFCBB6",
"h  c #D6C98A",
"j  c #CDCCC7",
"k  c gray74",
"l  c #B7B3A5",
"z  c #CDC398",
"x  c #D4C688",
"c  c #D6C783",
"v  c #D1C590",
"b  c #C7C1A4",
"n  c #B9B8B4",
"m  c #CCCBCB",
"M  c #D1CAAE",
"N  c #CFCBB7",
"B  c #B7B5B0",
"V  c #CFC494",
"C  c #C4A078",
"Z  c #D5C786",
"A  c #C5C0A8",
"S  c gray70",
"D  c #B7B7B7",
"F  c #D5C994",
"G  c #D6C98F",
"H  c #B6B6B6",
"J  c #BBB9B0",
"K  c #CAC29E",
"L  c gray",
"P  c #C8BFB5",
"I  c #D0C9A9",
"U  c #B5B4B1",
"Y  c #D3C68A",
"T  c #C8C1A3",
"R  c #B4B4B4",
"E  c #C8C8C7",
"W  c #CDCABA",
"Q  c #CCC39A",
"!  c #B08460",
"~  c #D7C882",
"^  c #BEBCB2",
"/  c #D4C999",
"(  c #CBCAC3",
")  c #B5B3AC",
"_  c #CDC397",
"`  c #D2C9A2",
"'  c #CBCAC5",
"]  c #C1C1C1",
"[  c #BFAF9E",
"{  c #D7C783",
"}  c #BCBBB9",
"|  c #D1C9A3",
" . c #CFC492",
".. c #C3BFAE",
"X. c #C8C6C3",
"o. c #C6C0A6",
"O. c #D1C8A3",
"+. c #C8C7C7",
"@. c #C8C1A5",
"#. c #D4C687",
"$. c #CCCBC6",
"%. c #D3C586",
"&. c #C5BFA3",
"*. c gray72",
"=. c #D2C9A3",
"-. c #D2C9A4",
";. c #D2CAA4",
":. c #C6BFA3",
">. c gray75",
",. c #C1BB9E",
"<. c #CDCBC6",
"1. c #C3BCA0",
"2. c #C6C0A4",
"3. c #C3A481",
"4. c #C5BEA2",
"5. c #C3C2C2",
"6. c #CCBF85",
"7. c #C2C0BE",
"8. c #C6BB89",
"9. c #C8BB81",
"0. c #A78467",
"q. c #BDB8A1",
"w. c #C7C0A2",
"e. c #D2C383",
"r. c #999896",
"t. c #989898",
"y. c gray60",
"u. c #A9A9A9",
"i. c gray63",
"p. c #959595",
"a. c gray55",
"s. c gray56",
"d. c gray54",
"f. c gray52",
"g. c gray53",
"h. c #818181",
"j. c #888888",
"k. c #898989",
"l. c #8D8D8D",
"z. c gray57",
"x. c #979797",
"c. c gray59",
"v. c #B7AF8D",
"b. c #9A9A98",
"n. c #A0A0A0",
"m. c #9A9A9A",
"M. c gray62",
"N. c #9B9A9A",
"B. c #ADACAC",
"V. c #9B9B9B",
"C. c #9F9F9F",
"Z. c #A4A3A3",
"A. c #A6A5A5",
"S. c #9E9D96",
"D. c #9A9994",
"F. c #9D9C97",
"G. c #9D9B96",
"H. c #A09F9A",
"J. c #A2A19C",
"K. c #A3A29D",
"L. c #9C9A95",
"P. c #9E9D98",
"I. c #ABA9A4",
"U. c #BAB28C",
"Y. c white",
/* pixels */
"                    . X o o o o o o o O +                       ",
"              + @ # $ % & % * % = - % ; : > ,                   ",
"            o < 1 2 3 ; 4 5 6 7 6 1 1 8 % 1 9 0 q               ",
"          w e & ; & r t y u i p a s d f = & 4 r g q             ",
"        h j 1 ; ; k y l z x +   c v b n k f % m ; M             ",
"        N 1 % ; a B V     C           Z A S D % r % F     C     ",
"      G ; 1 % H J x C                     K D L ; ; P           ",
"      I 1 % 6 U Y                           T R ; % E O         ",
"      W - = y Q         !                   ~ ^ L ; 1 / !       ",
"      ( 1 7 ) ~                               _ D ; 1 `         ",
"      ' ; ] [                               C { } 4 8 |         ",
"      ' 1 D  .                                  ..4 8 |         ",
"      X.= D Y                         !         o.4 - O.        ",
"      ' +.D x                                   @.4 % O.        ",
"      ' 1 D #.                                  b 4 ; O.        ",
"      $.; D %.                                  &.3 ; |         ",
"      $.= *.x                                   @.f * =.        ",
"      j % t x                                   @.4 = -.        ",
"      j % L x                                   @.6 % ;.        ",
"      j 1 y x                                   :.] % ;.        ",
"      j % >.x                                   ,.6 % ;.        ",
"      <.% y x             C                     1.4 % -.  C     ",
"      ' ; L x       C                           2.4 * O.        ",
"      j % s x                                   @.6 % ;.        ",
"      j r d x           !                       @.4 r ;.!       ",
"      j = u x                                   @.4 % ;.        ",
"      j = d 3.                              C   @.3 ; ;.        ",
"      j ; y x                                   4.5.; ;.        ",
"6.6.6.7.5 H 8.9.9.9.9.9.9.9.9.9.9.9.9.0.9.9.9.9.q.d ] w.6.6.e.  ",
"r.t.y.y.u.i.y.p.a.s.a.d.f.g.h.j.k.k.d.a.l.s.z.t.x.y.c.x.y.y.v.  ",
"b.y.y.y.n.m.t.x.c.M.m.c.x.t.y.N.B.V.V.M.p.y.c.y.M.N.c.C.Z.A.v.  ",
"S.D.F.G.F.F.F.F.F.H.F.F.F.G.F.F.F.F.J.K.F.L.G.F.F.P.L.G.F.I.U.  "
};
