/* XPM */
static char *result[] = {
/* columns rows colors chars-per-pixel */
"32 32 154 2 ",
"   c #080E16",
".  c #121213",
"X  c #3A2B1D",
"o  c #0A213F",
"O  c #232324",
"+  c #36312D",
"@  c #353535",
"#  c #3C3C3D",
"$  c #422E1C",
"%  c #4D3925",
"&  c #523A22",
"*  c #503E2D",
"=  c #5D442D",
"-  c #45413D",
";  c #594633",
":  c #52463B",
">  c #5D4A38",
",  c #64462A",
"<  c #6B4A2B",
"1  c #714E2E",
"2  c #76522F",
"3  c #624A34",
"4  c #6B4F34",
"5  c #694F38",
"6  c #6E543C",
"7  c #7A5532",
"8  c #78583D",
"9  c #333940",
"0  c #05336C",
"q  c #34475D",
"w  c #294A75",
"e  c #434343",
"r  c #4A4745",
"t  c #4E4E4E",
"y  c #574D44",
"u  c #5A4E43",
"i  c #584F48",
"p  c #5C5146",
"a  c #5C544C",
"s  c #4F4F50",
"d  c #535353",
"f  c #595757",
"g  c #5F5850",
"h  c #5B5B5B",
"j  c #774949",
"k  c #6E5740",
"l  c #61564C",
"z  c #705842",
"x  c #665E5C",
"c  c #65615C",
"v  c #776453",
"b  c #7D6856",
"n  c #636464",
"m  c #696160",
"M  c #6B6966",
"N  c #6D6D6D",
"B  c #786764",
"V  c #746B69",
"C  c #76706B",
"Z  c #6F6F70",
"A  c #6F7070",
"S  c #7C7472",
"D  c #797877",
"F  c #777878",
"G  c #7B7B7B",
"H  c #845B35",
"J  c #895F37",
"K  c #855E39",
"L  c #895F38",
"P  c #8B6037",
"I  c #87603B",
"U  c #8B6139",
"Y  c #835F40",
"T  c #9E5555",
"R  c #A25C5C",
"E  c #836144",
"W  c #8B6542",
"Q  c #8E6945",
"!  c #8C6B4C",
"~  c #916F4F",
"^  c #806A57",
"/  c #8C6E53",
"(  c #826C59",
")  c #8C715A",
"_  c #837263",
"`  c #897666",
"'  c #947E6D",
"]  c #807F7E",
"[  c #BC6464",
"{  c #D76C6B",
"}  c #96816E",
"|  c #82807E",
" . c #958272",
".. c #968576",
"X. c #998779",
"o. c #B38E70",
"O. c #C4A078",
"+. c #06428C",
"@. c #0C58B4",
"#. c #0873F5",
"$. c #7689A0",
"%. c #848485",
"&. c #8E8686",
"*. c #8D8D8D",
"=. c #9C8D82",
"-. c #988B89",
";. c #98928E",
":. c #8F8F90",
">. c #929292",
",. c #9E9791",
"<. c #979898",
"1. c #9A9A9B",
"2. c #A2968C",
"3. c #A5998F",
"4. c #A69B93",
"5. c #A89D95",
"6. c #A89F99",
"7. c #BBB28C",
"8. c #A9A593",
"9. c #BDA794",
"0. c #B7B29E",
"q. c #A5A6A6",
"w. c #ADACAC",
"e. c #B0ACA5",
"r. c #B3B1AE",
"t. c #B3B3B3",
"y. c #B8B4B4",
"u. c #BCBCBC",
"i. c #C3B888",
"p. c #C5BCB4",
"a. c #C0BFBF",
"s. c #D7C884",
"d. c #D8C880",
"f. c #D6C98B",
"g. c #D0C492",
"h. c #D5C994",
"j. c #D2C89B",
"k. c #CDC6A8",
"l. c #D2C9A4",
"z. c #D2CAAA",
"x. c #CCC7B1",
"c. c #CFCAB1",
"v. c #CECBBB",
"b. c #D0CBB3",
"n. c #BFC0C0",
"m. c #C5C5C5",
"M. c #CCCAC5",
"N. c #C7C8C8",
"B. c #CBCBCB",
"V. c #D5D5D5",
"C. c gray86",
"Z. c #E6E6E6",
"A. c #ECECEC",
"S. c #F3F3F3",
/* pixels */
"d.d.d.d.d.d.d.d.d.d.d.d.d.d.d.d.d.s.s.d.s.s.d.d.d.d.d.d.d.d.d.d.",
"d.d.d.d.d.d.d.d.d.d.f.h.h.h.h.h.h.i.g.h.f.s.d.d.d.d.d.d.d.d.d.d.",
"d.d.d.d.d.d.d.d.j.x.e.] >.m.B.B.r.V ] :.M.M.k.h.d.d.d.d.d.d.d.d.",
"d.d.d.d.d.d.f.b.B.a.V V.w.N a.m.%.B.S.%.r.B.M.M.l.s.d.d.d.d.d.d.",
"d.d.d.d.d.f.v.B.B.m.G -.T &.N q.] w.S.Z.N B.N.N.N.c.s.d.d.d.d.d.",
"d.d.d.d.f.v.B.B.B.a.Z ] { R M 3 8 g Z.S.F y.m.B.B.B.l.d.d.O.d.d.",
"d.d.d.d.z.B.B.B.u.w.=.: B [ B % x x M %.$.-.t.n.B.B.M.h.d.d.d.d.",
"d.d.d.f.M.B.B.n.w.' Y W * m j f Z.S.S.V.p , 4.t.m.B.B.c.d.d.d.d.",
"d.d.d.j.M.B.N.y.' ! K J 1 r f f N.S.S.S.C.> / 4.y.B.B.M.o.d.d.d.",
"d.d.d.x.N.B.a.5.E K J J = w.>.r.A.S.S.S.S.c H ` r.m.B.N.h.d.d.d.",
"d.d.d.v.N.N.r.) K J U U ; y.B.V.A.Z.S.S.A.V H K =.u.N.N.l.d.d.d.",
"d.d.s.v.B.N.6./ K J U U = y.B.B.1.G A.u.F a J I ' y.N.N.l.d.d.d.",
"d.d.s.p.N.n.X.8 H K U L , 6.V.B.>.@ y.>.# : H H I e.N.N.l.d.d.d.",
"d.d.s.v.B.y...W H J U U 7 a B.B.A.C.x G Z.l J H / 5.N.B.l.d.d.d.",
"d.d.d.v.B.y._ k 6 k k k k > 9 $.q.t.h t c ; z k k ,.N.B.l.d.d.d.",
"d.d.s.v.N.u.Z Z F t F Z e 9 o 0 +.9 0   h n d %.h *.N.N.l.d.d.d.",
"d.d.s.v.B.u.N :.1.d 1.*.O n q.0 #.#.@.O @ d f t.N *.N.N.l.d.d.d.",
"d.d.s.v.B.u.M p a u a a + 1.| q w +.q . q.- y l y ;.N.B.l.d.d.d.",
"d.d.s.v.B.u. .W J J P P 7 X e n S D M $ * 7 K J ! 4.N.B.l.d.d.d.",
"d.d.d.v.B.u.} Q P J U P H < &.:.% a r.* U U U U ! 4.N.B.l.d.d.d.",
"d.d.s.v.B.v.' W P P P P H 7 & % 1 , & < J J U U Q 3.N.B.l.d.d.d.",
"d.d.s.v.B.a.' I I P P I H 7 U 7 J P H J P J P U Q 2.m.B.l.O.d.d.",
"d.d.s.v.B.a. .Q I P U U J H P 7 H U H P P P U U ! 3.N.B.l.d.d.d.",
"d.d.s.v.B.a. .Q K I P I H 7 I 7 7 K 7 K K K I K ! 3.N.B.l.d.d.d.",
"d.d.s.v.B.a.C l l a a a i a l 6 k g a a a a a l a >.N.B.9.d.d.d.",
"d.d.s.v.B.a.N *.1.t 1.>.d q.%.> y q.%.d w.F h t.Z >.B.B.l.d.d.d.",
"d.d.s.v.B.n.N Z D t D A s G M 3 y F M s %.n d %.h :.N.B.l.d.d.d.",
"d.d.s.v.B.y.` 6 6 6 6 6 6 5 6 4 4 6 5 6 6 6 6 6 z 4.N.B.l.d.d.d.",
"d.s.s.p.B.u...Q H U U U J H U 7 J U H J J U U U ~ 4.N.B.l.d.d.d.",
"d.s.s.v.B.n.' W J J P P H H U 2 H J 7 J P U J J ! 2.m.B.l.d.d.d.",
"7.7.7.y.y.r...( ( ( ( ^ ^ b b v b ^ ^ ^ ( ( ( ( _ ,.t.t.0.7.7.i.",
"<.<.1.<.q.q.<.<.>.>.>.:.*.*.&.*.>.:.:.>.>.>.>.>.1.>.1.>.1.1.1.8."
};
